<svg width="680" height="680" viewBox="0 0 680 680" xmlns="http://www.w3.org/2000/svg">
<defs>
  <radialGradient id="bgGrad" cx="50%" cy="50%" r="50%">
    <stop offset="0%" stop-color="#0e1a2e"/>
    <stop offset="100%" stop-color="#060c18"/>
  </radialGradient>
  <radialGradient id="centerGlow" cx="50%" cy="50%" r="50%">
    <stop offset="0%" stop-color="#ffffff" stop-opacity="1"/>
    <stop offset="40%" stop-color="#a0d8ff" stop-opacity="0.9"/>
    <stop offset="100%" stop-color="#4488ff" stop-opacity="0"/>
  </radialGradient>
  <radialGradient id="nodeGrad1" cx="30%" cy="30%" r="70%">
    <stop offset="0%" stop-color="#60aaff"/>
    <stop offset="100%" stop-color="#3355cc"/>
  </radialGradient>
  <radialGradient id="nodeGrad2" cx="30%" cy="30%" r="70%">
    <stop offset="0%" stop-color="#aa66ff"/>
    <stop offset="100%" stop-color="#6622bb"/>
  </radialGradient>
  <linearGradient id="textGrad" x1="0%" y1="0%" x2="100%" y2="0%">
    <stop offset="0%" stop-color="#44aaff"/>
    <stop offset="50%" stop-color="#8855ff"/>
    <stop offset="100%" stop-color="#44aaff"/>
  </linearGradient>
  <filter id="glow1"><feGaussianBlur stdDeviation="4" result="blur"/><feMerge><feMergeNode in="blur"/><feMergeNode in="SourceGraphic"/></feMerge></filter>
  <filter id="glow2"><feGaussianBlur stdDeviation="8" result="blur"/><feMerge><feMergeNode in="blur"/><feMergeNode in="SourceGraphic"/></feMerge></filter>
  <filter id="softglow"><feGaussianBlur stdDeviation="12" result="blur"/><feMerge><feMergeNode in="blur"/><feMergeNode in="SourceGraphic"/></feMerge></filter>
</defs>
<rect x="0" y="0" width="680" height="680" rx="120" fill="url(#bgGrad)"/>
<g opacity="0.08">
  <circle cx="170" cy="170" r="2" fill="#4488ff"/><circle cx="340" cy="170" r="2" fill="#4488ff"/>
  <circle cx="510" cy="170" r="2" fill="#4488ff"/><circle cx="170" cy="340" r="2" fill="#4488ff"/>
  <circle cx="510" cy="340" r="2" fill="#4488ff"/><circle cx="170" cy="510" r="2" fill="#4488ff"/>
  <circle cx="340" cy="510" r="2" fill="#4488ff"/><circle cx="510" cy="510" r="2" fill="#4488ff"/>
</g>
<g stroke="#3366cc" stroke-width="2.5" fill="none" opacity="0.7">
  <line x1="230" y1="210" x2="310" y2="210"/><line x1="370" y1="210" x2="450" y2="210"/>
  <line x1="230" y1="470" x2="310" y2="470"/><line x1="370" y1="470" x2="450" y2="470"/>
  <line x1="190" y1="250" x2="190" y2="430"/><line x1="490" y1="250" x2="490" y2="430"/>
  <line x1="215" y1="340" x2="310" y2="340"/><line x1="370" y1="340" x2="465" y2="340"/>
</g>
<g stroke="#6633aa" stroke-width="1.8" fill="none" stroke-dasharray="6,5" opacity="0.6">
  <line x1="220" y1="230" x2="460" y2="450"/><line x1="460" y1="230" x2="220" y2="450"/>
  <line x1="220" y1="230" x2="325" y2="330"/><line x1="460" y1="230" x2="355" y2="330"/>
  <line x1="220" y1="450" x2="325" y2="350"/><line x1="460" y1="450" x2="355" y2="350"/>
</g>
<g opacity="0.25">
  <circle cx="190" cy="210" r="38" fill="#4488ff"/><circle cx="340" cy="210" r="38" fill="#5544ff"/>
  <circle cx="490" cy="210" r="38" fill="#4488ff"/><circle cx="190" cy="470" r="38" fill="#4488ff"/>
  <circle cx="340" cy="470" r="38" fill="#5544ff"/><circle cx="490" cy="470" r="38" fill="#4488ff"/>
  <circle cx="190" cy="340" r="36" fill="#6633aa"/><circle cx="490" cy="340" r="36" fill="#6633aa"/>
</g>
<circle cx="190" cy="210" r="36" fill="#0a1528" stroke="#4488ee" stroke-width="3"/>
<circle cx="190" cy="210" r="22" fill="none" stroke="#3366dd" stroke-width="1.5" opacity="0.4"/>
<circle cx="340" cy="210" r="36" fill="#0a1528" stroke="#4488ee" stroke-width="3"/>
<circle cx="340" cy="210" r="22" fill="none" stroke="#3366dd" stroke-width="1.5" opacity="0.4"/>
<circle cx="490" cy="210" r="36" fill="#0a1528" stroke="#4488ee" stroke-width="3"/>
<circle cx="490" cy="210" r="22" fill="none" stroke="#3366dd" stroke-width="1.5" opacity="0.4"/>
<circle cx="190" cy="340" r="34" fill="#0a1528" stroke="#8844dd" stroke-width="3"/>
<circle cx="190" cy="340" r="20" fill="none" stroke="#7744cc" stroke-width="1.5" opacity="0.4"/>
<circle cx="490" cy="340" r="34" fill="#0a1528" stroke="#8844dd" stroke-width="3"/>
<circle cx="490" cy="340" r="20" fill="none" stroke="#7744cc" stroke-width="1.5" opacity="0.4"/>
<circle cx="190" cy="470" r="36" fill="#0a1528" stroke="#4488ee" stroke-width="3"/>
<circle cx="190" cy="470" r="22" fill="none" stroke="#3366dd" stroke-width="1.5" opacity="0.4"/>
<circle cx="340" cy="470" r="36" fill="#0a1528" stroke="#4488ee" stroke-width="3"/>
<circle cx="340" cy="470" r="22" fill="none" stroke="#3366dd" stroke-width="1.5" opacity="0.4"/>
<circle cx="490" cy="470" r="36" fill="#0a1528" stroke="#4488ee" stroke-width="3"/>
<circle cx="490" cy="470" r="22" fill="none" stroke="#3366dd" stroke-width="1.5" opacity="0.4"/>
<circle cx="340" cy="340" r="28" fill="#0a1528" stroke="#5599ff" stroke-width="2.5" opacity="0.6"/>
<circle cx="340" cy="340" r="18" fill="url(#centerGlow)"/>
<circle cx="340" cy="340" r="10" fill="#ffffff" opacity="0.95"/>
<circle cx="340" cy="340" r="5" fill="#ffffff"/>
<text x="340" y="572" text-anchor="middle" font-family="Arial Black, Arial, sans-serif" font-size="62" font-weight="900" fill="#3366ff" opacity="0.3">COGNORYX</text>
<text x="340" y="572" text-anchor="middle" font-family="Arial Black, Arial, sans-serif" font-size="62" font-weight="900" fill="url(#textGrad)" letter-spacing="3">COGNORYX</text>
<text x="340" y="610" text-anchor="middle" font-family="Arial, sans-serif" font-size="18" font-weight="400" fill="#556699" letter-spacing="5">AI INTELLIGENCE</text>
<line x1="140" y1="528" x2="540" y2="528" stroke="#5588cc" stroke-width="1" opacity="0.3"/>
</svg>
